<?xml version="1.0" encoding="iso-8859-1"?>
<!-- Generator: Adobe Illustrator 19.0.0, SVG Export Plug-In . SVG Version: 6.00 Build 0)  -->
<svg version="1.1" id="Layer_1" xmlns="http://www.w3.org/2000/svg" xmlns:xlink="http://www.w3.org/1999/xlink" x="0px" y="0px"
	 viewBox="0 0 512 512" style="enable-background:new 0 0 512 512;" xml:space="preserve">
<path style="fill:#F4661E;" d="M459.755,206.367l41.796,31.347l-41.796,36.571l19.438,47.02l-39.295,10.132
	c-7.837-9.817-18.388-17.449-30.398-21.735c15.041-18.173,24.133-41.377,24.133-66.765c0-57.673-46.817-104.49-104.49-104.49
	c-27.275,0-51.928,10.449-70.531,27.48l-18.286-17.031l10.449-56l52.245,19.429l31.347-41.796l31.347,41.796l52.245-19.429
	l5.021,56.102l56.214,5.122L459.755,206.367z"/>
<path style="fill:#FFD248;" d="M433.633,242.939c0,25.388-9.092,48.592-24.133,66.765c-7.113-2.612-14.847-4.072-22.887-4.072
	c-10.969,0-21.316,2.715-30.51,7.316c2.816-7.113,4.388-14.837,4.388-22.99c0-34.591-28.112-62.694-62.694-62.694
	c-7.734,0-15.051,1.469-21.836,3.97c-2.929-21-13.693-39.5-29.153-52.459c3.551-4.592,7.52-8.877,11.806-12.847
	c18.601-17.03,43.255-27.479,70.53-27.479C386.816,138.449,433.633,185.266,433.633,242.939z"/>
<path style="fill:#31C0D8;" d="M439.898,331.438c9.092,11.603,14.633,26.235,14.633,42.113c0,37.51-30.409,67.918-67.918,67.918
	c-36.571,0-238.346,0-287.347,0s-88.816-55.48-88.816-104.49s39.816-88.816,88.816-88.816c3.653,0,7.205,0.306,10.755,0.735
	c-0.102-1.99-0.306-3.98-0.306-5.959c0-46.183,37.408-83.592,83.592-83.592c20.378,0,38.98,7.316,53.5,19.429
	c15.459,12.959,26.225,31.459,29.153,52.459c6.786-2.5,14.102-3.97,21.836-3.97c34.582,0,62.694,28.103,62.694,62.694
	c0,8.153-1.572,15.877-4.388,22.99c9.194-4.602,19.541-7.316,30.51-7.316c8.04,0,15.776,1.46,22.887,4.072
	C421.51,313.99,432.061,321.623,439.898,331.438z"/>
<g>
	<path style="fill:#231F20;" d="M507.82,229.355l-35.549-26.663l16.715-44.926c1.136-3.051,0.784-6.456-0.95-9.21
		c-1.735-2.755-4.653-4.544-7.895-4.84l-47.531-4.331l-4.244-47.42c-0.289-3.243-2.077-6.168-4.833-7.906
		c-2.754-1.738-6.163-2.091-9.216-0.956l-44.927,16.708l-26.663-35.551c-1.974-2.631-5.071-4.18-8.359-4.18s-6.385,1.549-8.359,4.18
		l-26.664,35.551l-44.928-16.708c-2.888-1.073-6.106-0.817-8.79,0.701c-2.682,1.519-4.558,4.145-5.123,7.176l-10.449,56
		l20.543,3.833l8.172-43.795l40.608,15.101c4.338,1.614,9.223,0.181,12.001-3.524l22.988-30.65l22.988,30.65
		c2.779,3.705,7.668,5.14,12.001,3.524l39.416-14.658l3.801,42.47c0.45,5.029,4.43,9.016,9.459,9.474l42.603,3.882l-14.672,39.436
		c-1.615,4.339-0.181,9.224,3.523,12.003l31.484,23.613l-32.095,28.084c-3.37,2.949-4.487,7.718-2.775,11.855l14.846,35.912
		l-21.435,5.526c-5.32-5.587-11.4-10.353-18.062-14.146c12.076-18.614,18.635-40.408,18.635-62.632
		C444.082,179.562,392.52,128,329.143,128c-28.746,0-56.299,10.733-77.631,30.262c-2.208,2.046-4.313,4.163-6.327,6.326
		c-15.34-10.163-33.411-15.69-51.879-15.69c-50.101,0-91.177,39.383-93.897,88.816c-0.048,0-0.096,0-0.144,0
		C44.53,237.714,0,282.245,0,336.98c0,26.254,10.594,55.103,28.339,77.171c19.583,24.355,44.773,37.768,70.927,37.768h287.347
		c43.212,0,78.367-35.156,78.367-78.367c0-12.32-3.001-24.537-8.608-35.569l25.432-6.557c2.929-0.757,5.386-2.743,6.739-5.45
		c1.352-2.706,1.464-5.865,0.308-8.66l-16.576-40.098l36.158-31.638c2.372-2.074,3.679-5.109,3.561-8.257
		C511.874,234.173,510.341,231.246,507.82,229.355z M265.668,173.636c17.424-15.952,39.966-24.738,63.474-24.738
		c51.854,0,94.041,42.187,94.041,94.041c0,19.843-6.036,38.595-17.525,54.642c-6.212-1.592-12.591-2.397-19.046-2.397
		c-5.41,0-10.752,0.558-15.997,1.67c0.215-2.284,0.324-4.583,0.324-6.894c0-40.332-32.812-73.143-73.143-73.143
		c-4.639,0-9.273,0.455-13.867,1.355c-4.087-15.041-11.872-28.829-22.692-40.167C262.658,176.513,264.138,175.053,265.668,173.636z
		 M386.612,431.02H99.265c-43.41,0-78.367-51.446-78.367-94.041c0-43.212,35.156-78.367,78.367-78.367
		c2.794,0,5.725,0.203,9.503,0.659c3.054,0.371,6.126-0.631,8.381-2.734c2.254-2.104,3.463-5.095,3.306-8.173
		c-0.038-0.724-0.293-4.463-0.293-5.424c0-40.332,32.811-73.143,73.143-73.143c17.282,0,33.464,5.878,46.798,16.996
		c13.954,11.702,23.012,27.996,25.506,45.886c0.437,3.132,2.268,5.896,4.981,7.521c2.712,1.625,6.012,1.933,8.981,0.841
		c5.988-2.207,12.121-3.326,18.224-3.326c28.808,0,52.245,23.437,52.245,52.245c0,6.58-1.23,13.02-3.654,19.143
		c-1.595,4.028-0.539,8.622,2.655,11.55c1.971,1.806,4.502,2.746,7.062,2.746c1.589,0,3.191-0.363,4.676-1.106
		c8.234-4.121,16.924-6.211,25.833-6.211c6.599,0,13.086,1.155,19.286,3.43c0.03,0.011,0.062,0.019,0.092,0.029l-0.001,0.003
		c10.103,3.606,19.005,9.973,25.685,18.339c8.117,10.358,12.407,22.692,12.407,35.667C444.082,405.24,418.301,431.02,386.612,431.02
		z"/>
	<path style="fill:#231F20;" d="M381.388,237.714h20.898c0-37.45-30.468-67.918-67.918-67.918v20.898
		C360.295,190.694,381.388,211.787,381.388,237.714z"/>
	<path style="fill:#231F20;" d="M282.122,305.633c-25.928,0-47.02,21.093-47.02,47.02H256c0-14.404,11.719-26.122,26.122-26.122
		s26.122,11.719,26.122,26.122c0,14.404-11.719,26.122-26.122,26.122H151.51v20.898h130.612c25.928,0,47.02-21.092,47.02-47.02
		C329.143,326.726,308.051,305.633,282.122,305.633z"/>
	<rect x="99.265" y="378.776" style="fill:#231F20;" width="31.347" height="20.898"/>
	<rect x="83.592" y="342.204" style="fill:#231F20;" width="114.939" height="20.898"/>
</g>
<g>
</g>
<g>
</g>
<g>
</g>
<g>
</g>
<g>
</g>
<g>
</g>
<g>
</g>
<g>
</g>
<g>
</g>
<g>
</g>
<g>
</g>
<g>
</g>
<g>
</g>
<g>
</g>
<g>
</g>
</svg>
